<?xml version="1.0" encoding="UTF-8"?>
<svg xmlns="http://www.w3.org/2000/svg" width="720" height="280" viewBox="0 0 720 280" role="img" aria-label="ludic loop">
  <rect width="720" height="280" fill="#1e201e"/>
  <text x="24" y="36" fill="#f2f3f0" font-family="Georgia, serif" font-size="18" font-weight="600">ゾーンを延ばすフィードバック</text>
  <rect x="50" y="80" width="140" height="70" rx="4" fill="#151716" stroke="#35d0bb" stroke-width="2"/>
  <text x="78" y="110" fill="#f2f3f0" font-family="Georgia, serif" font-size="14">行為入力</text>
  <text x="70" y="132" fill="#a9aaa5" font-family="Georgia, serif" font-size="12">タップ／スピン</text>
  <path d="M190 115 H230" stroke="#35d0bb" stroke-width="3"/>
  <polygon points="230,110 242,115 230,120" fill="#35d0bb"/>
  <rect x="250" y="80" width="160" height="70" rx="4" fill="#151716" stroke="#393b38" stroke-width="2"/>
  <text x="268" y="110" fill="#f2f3f0" font-family="Georgia, serif" font-size="14">高速フィードバック</text>
  <text x="275" y="132" fill="#a9aaa5" font-family="Georgia, serif" font-size="12">すぐ次が来る</text>
  <path d="M410 115 H450" stroke="#35d0bb" stroke-width="3"/>
  <polygon points="450,110 462,115 450,120" fill="#35d0bb"/>
  <rect x="470" y="80" width="180" height="70" rx="4" fill="#151716" stroke="#393b38" stroke-width="2"/>
  <text x="500" y="110" fill="#f2f3f0" font-family="Georgia, serif" font-size="14">可変の小報酬</text>
  <text x="495" y="132" fill="#a9aaa5" font-family="Georgia, serif" font-size="12">たまに当たる感</text>
  <path d="M560 150 V190 H120 V150" stroke="#c2c3bf" stroke-width="2" fill="none"/>
  <polygon points="115,150 125,150 120,138" fill="#c2c3bf"/>
  <rect x="200" y="200" width="320" height="40" rx="4" fill="#151716" stroke="#35d0bb" stroke-width="2"/>
  <text x="250" y="226" fill="#f2f3f0" font-family="Georgia, serif" font-size="14">継続時間（time-on-device）最大化</text>
  <text x="24" y="265" fill="#a9aaa5" font-family="Georgia, serif" font-size="12">教育用模式図 / Schüll Addiction by Design</text>
</svg>
